<?xml version="1.0" standalone="no"?>
<!DOCTYPE svg PUBLIC "-//W3C//DTD SVG 20010904//EN"
 "http://www.w3.org/TR/2001/REC-SVG-20010904/DTD/svg10.dtd">
<svg version="1.0"
    xmlns="http://www.w3.org/2000/svg" width="96.000000pt" height="96.000000pt" viewBox="0 0 96.000000 96.000000" preserveAspectRatio="xMidYMid meet">
    <metadata>
Created by potrace 1.16, written by Peter Selinger 2001-2019
    </metadata>
    <g transform="translate(0.000000,96.000000) scale(0.100000,-0.100000)" fill="#8682E6" stroke="none">
        <path d="M337 836 c-106 -44 -187 -130 -223 -238 -24 -73 -16 -196 17 -268 73
-156 245 -251 402 -221 163 32 279 144 313 304 35 166 -56 341 -214 415 -83
39 -213 42 -295 8z m275 -64 c68 -34 134 -104 159 -171 17 -45 20 -72 17 -136
-7 -130 -66 -218 -186 -273 -48 -21 -64 -24 -140 -20 -103 5 -152 27 -218 94
-60 63 -87 137 -82 234 6 133 80 233 213 287 50 20 182 12 237 -15z"/>
        <path d="M427 724 c-24 -7 -37 -44 -37 -103 l0 -49 -65 -4 c-36 -2 -71 -10
-77 -16 -7 -7 -13 -37 -13 -68 0 -70 16 -84 96 -84 l57 0 4 -66 c5 -78 19 -94
85 -94 63 0 83 24 83 100 l0 60 60 0 c76 0 100 20 100 83 0 66 -16 80 -94 85
l-66 4 0 57 c0 32 -6 65 -13 75 -13 18 -84 30 -120 20z"/>
    </g>
</svg>
