<?xml version="1.0" standalone="no"?>
<!DOCTYPE svg PUBLIC "-//W3C//DTD SVG 20010904//EN"
 "http://www.w3.org/TR/2001/REC-SVG-20010904/DTD/svg10.dtd">
<svg version="1.0"
    xmlns="http://www.w3.org/2000/svg" width="1280.000000pt" height="1280.000000pt" viewBox="0 0 1280.000000 1280.000000" preserveAspectRatio="xMidYMid meet">
    <metadata>
Created by potrace 1.16, written by Peter Selinger 2001-2019
    </metadata>
    <g transform="translate(0.000000,1280.000000) scale(0.100000,-0.100000)" fill="#8682E6" stroke="none">
        <path d="M6407 11233 c-8 -27 -121 -376 -250 -778 -129 -401 -340 -1054 -467
-1450 -387 -1202 -398 -1236 -402 -1240 -4 -4 -1906 -28 -3238 -41 -382 -4
-702 -10 -710 -15 -12 -7 -12 -8 3 -9 10 0 16 -4 13 -9 -3 -5 2 -15 12 -22 15
-13 16 -12 3 4 -7 9 -9 17 -3 17 12 0 34 -25 27 -32 -3 -3 3 -11 12 -19 16
-13 17 -12 4 4 -7 9 -9 17 -3 17 12 0 34 -25 27 -32 -3 -3 3 -11 12 -19 16
-13 17 -12 4 4 -7 9 -9 17 -3 17 12 0 34 -25 27 -32 -3 -3 3 -11 12 -19 16
-13 17 -12 4 4 -7 9 -9 17 -3 17 12 0 34 -25 27 -32 -3 -3 3 -11 12 -19 16
-13 17 -12 4 4 -7 9 -9 17 -3 17 12 0 34 -25 27 -32 -3 -3 3 -11 12 -19 16
-13 17 -12 4 4 -7 9 -9 17 -3 17 12 0 34 -25 27 -32 -3 -3 11 -17 32 -32 l38
-27 -35 30 c-19 17 -31 31 -26 31 14 0 76 -52 71 -60 -3 -4 12 -20 33 -35 l37
-26 -35 30 c-19 17 -31 31 -26 31 14 0 76 -52 71 -60 -3 -5 0 -12 6 -16 8 -4
9 -3 5 4 -4 7 -3 12 2 12 11 0 30 -21 30 -33 0 -5 4 -12 8 -15 4 -4 4 -1 -1 7
-5 9 -3 12 6 9 8 -3 13 -10 12 -16 -1 -5 5 -16 15 -24 15 -12 16 -11 3 5 -7 9
-9 17 -3 17 12 0 34 -25 27 -32 -3 -3 3 -11 12 -19 16 -13 17 -12 4 4 -7 9 -9
17 -3 17 12 0 34 -25 27 -32 -3 -3 3 -11 12 -19 16 -13 17 -12 4 4 -7 9 -9 17
-3 17 12 0 34 -25 27 -32 -3 -3 3 -11 12 -19 16 -13 17 -12 4 4 -7 9 -9 17 -3
17 12 0 34 -25 27 -32 -3 -3 3 -11 12 -19 16 -13 17 -12 4 4 -7 9 -9 17 -3 17
12 0 34 -25 27 -32 -3 -3 3 -11 12 -19 16 -13 17 -12 4 4 -7 9 -9 17 -3 17 12
0 34 -25 27 -32 -3 -3 3 -11 12 -19 16 -13 17 -12 4 4 -7 9 -9 17 -3 17 12 0
34 -25 27 -32 -3 -3 11 -17 32 -32 l38 -27 -35 30 c-19 17 -31 31 -26 31 14 0
76 -52 71 -60 -3 -5 9 -18 27 -30 l33 -22 -30 26 c-16 14 -26 26 -22 26 16 0
67 -41 62 -50 -3 -4 3 -14 13 -21 15 -13 16 -12 3 4 -7 9 -9 17 -3 17 12 0 34
-25 27 -32 -3 -3 3 -11 12 -19 16 -13 17 -12 4 4 -7 9 -9 17 -3 17 12 0 34
-25 27 -32 -3 -3 3 -11 12 -19 16 -13 17 -12 4 4 -7 9 -9 17 -3 17 12 0 34
-25 27 -32 -3 -3 3 -11 12 -19 16 -13 17 -12 4 4 -7 9 -9 17 -3 17 12 0 34
-25 27 -32 -3 -3 3 -11 12 -19 16 -13 17 -12 4 4 -7 9 -9 17 -3 17 12 0 34
-25 27 -32 -3 -3 3 -11 12 -19 16 -13 17 -12 4 4 -7 9 -9 17 -3 17 12 0 34
-25 27 -32 -3 -3 20 -24 51 -48 31 -24 54 -38 50 -32 -4 6 -27 26 -51 43 -25
18 -43 34 -41 37 7 6 116 -79 113 -89 -1 -5 19 -26 45 -45 27 -20 48 -34 48
-31 0 3 -20 20 -45 38 -25 18 -43 34 -41 36 7 7 106 -68 101 -77 -3 -4 3 -14
13 -21 15 -13 16 -12 3 4 -7 9 -9 17 -3 17 12 0 34 -25 27 -32 -3 -3 3 -11 12
-19 16 -13 17 -12 4 4 -7 9 -9 17 -3 17 12 0 34 -25 27 -32 -3 -3 3 -11 12
-19 16 -13 17 -12 4 4 -7 9 -9 17 -3 17 12 0 34 -25 27 -32 -3 -3 3 -11 12
-19 16 -13 17 -12 4 4 -7 9 -9 17 -3 17 12 0 34 -25 27 -32 -3 -3 3 -11 12
-19 16 -13 17 -12 4 4 -7 9 -9 17 -3 17 12 0 34 -25 27 -32 -3 -3 3 -11 12
-19 16 -13 17 -12 4 4 -7 9 -9 17 -3 17 12 0 34 -25 27 -32 -3 -3 20 -25 52
-48 32 -24 73 -55 91 -68 17 -13 32 -22 32 -19 0 3 -38 33 -85 68 -46 35 -83
64 -81 67 7 6 186 -130 181 -138 -3 -4 3 -14 13 -21 15 -13 16 -12 3 4 -7 9
-9 17 -3 17 12 0 34 -25 27 -32 -3 -3 3 -11 12 -19 16 -13 17 -12 4 4 -7 9 -9
17 -3 17 12 0 34 -25 27 -32 -3 -3 3 -11 12 -19 16 -13 17 -12 4 4 -7 9 -9 17
-3 17 12 0 34 -25 27 -32 -3 -3 3 -11 12 -19 16 -13 17 -12 4 3 -7 10 -9 18
-3 18 12 0 34 -25 27 -32 -3 -3 3 -11 12 -19 16 -13 17 -12 4 4 -7 9 -9 17 -3
17 12 0 34 -25 27 -32 -3 -3 3 -11 12 -19 16 -13 17 -12 4 4 -7 9 -9 17 -3 17
12 0 34 -25 27 -32 -3 -3 3 -11 12 -19 16 -13 17 -12 4 4 -7 9 -9 17 -3 17 12
0 34 -25 27 -32 -3 -3 10 -17 30 -32 19 -14 51 -38 70 -52 19 -15 35 -24 35
-21 0 3 -29 27 -65 53 -36 26 -63 49 -61 51 7 7 146 -99 141 -107 -3 -4 3 -14
13 -21 15 -13 16 -12 3 4 -7 9 -9 17 -3 17 12 0 34 -25 27 -32 -3 -3 3 -11 12
-19 16 -13 17 -12 4 4 -7 9 -9 17 -3 17 12 0 34 -25 27 -32 -3 -3 3 -11 12
-19 16 -13 17 -12 4 4 -7 9 -9 17 -3 17 12 0 34 -25 27 -32 -3 -3 3 -11 12
-19 16 -13 17 -12 4 4 -7 9 -9 17 -3 17 12 0 34 -25 27 -32 -3 -3 3 -11 12
-19 16 -13 17 -12 4 4 -8 10 -9 17 -3 17 11 0 27 -19 27 -32 0 -3 4 -10 9 -15
5 -5 6 -3 2 5 -4 6 -3 12 2 12 12 0 33 -25 27 -32 -3 -3 3 -11 12 -19 16 -13
17 -12 4 4 -7 9 -9 17 -3 17 12 0 34 -25 27 -32 -3 -3 10 -17 30 -32 19 -14
51 -38 70 -52 19 -15 35 -24 35 -21 0 3 -29 27 -65 53 -36 26 -63 49 -61 51 7
7 146 -99 141 -107 -3 -4 3 -14 13 -21 15 -13 16 -12 3 4 -7 9 -9 17 -3 17 12
0 34 -25 27 -32 -3 -3 3 -11 12 -19 16 -13 17 -12 4 4 -7 9 -9 17 -3 17 12 0
34 -25 27 -32 -3 -3 3 -11 12 -19 16 -13 17 -12 4 4 -7 9 -9 17 -3 17 12 0 34
-25 27 -32 -3 -3 3 -11 12 -19 16 -13 17 -12 4 3 -7 10 -9 18 -3 18 12 0 34
-25 27 -32 -3 -3 3 -11 12 -19 16 -13 17 -12 4 4 -7 9 -9 17 -3 17 12 0 34
-25 27 -32 -3 -3 3 -11 12 -19 16 -13 17 -12 4 4 -7 9 -9 17 -3 17 11 0 30
-21 30 -33 0 -5 4 -12 8 -15 4 -4 4 -1 0 6 -4 6 -3 12 2 12 12 0 33 -25 27
-32 -3 -3 20 -25 52 -48 32 -24 73 -55 91 -68 17 -13 32 -22 32 -19 0 3 -38
33 -85 68 -46 35 -83 64 -81 67 7 7 186 -130 181 -138 -3 -5 0 -12 6 -16 8 -4
9 -3 5 4 -4 7 -2 12 3 12 6 0 11 -5 11 -11 0 -6 -43 -145 -96 -308 -113 -349
-247 -765 -374 -1161 -50 -157 -115 -359 -145 -450 -30 -91 -96 -298 -149
-460 -160 -499 -277 -863 -288 -900 -9 -29 -12 -32 -18 -15 -6 18 -7 18 -12
-1 -8 -30 28 -28 69 3 18 14 36 24 39 21 2 -3 -17 -19 -43 -37 -26 -17 -44
-31 -40 -31 16 0 97 61 92 70 -3 5 8 18 24 29 36 26 48 27 30 4 -13 -16 -12
-17 3 -4 10 7 16 17 13 21 -3 4 6 15 20 24 35 23 45 19 15 -5 l-25 -21 25 15
c14 8 24 20 23 26 -3 11 85 76 93 68 2 -2 -14 -16 -36 -31 -22 -14 -40 -29
-40 -32 0 -3 20 9 45 26 25 17 44 36 42 42 -1 6 4 13 12 16 9 3 11 0 6 -8 -5
-9 -4 -11 4 -6 6 4 9 11 6 16 -6 9 83 75 91 67 2 -2 -14 -16 -36 -31 -22 -14
-40 -29 -40 -32 0 -3 20 9 45 26 25 17 44 36 42 42 -1 6 4 13 12 16 9 3 11 0
6 -8 -5 -9 -4 -11 4 -6 6 4 9 11 6 16 -3 5 8 18 24 29 41 29 52 26 16 -5 l-30
-26 32 22 c18 11 32 26 30 32 -1 6 4 13 12 16 9 3 11 0 6 -8 -5 -9 -4 -11 4
-6 6 4 9 11 6 16 -5 9 76 70 92 70 4 0 -5 -12 -22 -26 l-30 -26 32 22 c18 11
32 26 30 32 -1 6 4 13 12 16 9 3 11 0 6 -8 -5 -9 -4 -11 4 -6 6 4 9 11 6 16
-3 5 8 18 24 29 41 29 52 26 16 -5 l-30 -26 32 22 c18 11 32 26 30 32 -1 6 4
13 12 16 9 3 11 0 6 -9 -5 -8 -4 -11 1 -6 5 5 9 14 9 19 0 6 6 13 14 16 9 3
11 0 6 -8 -5 -9 -4 -11 4 -6 6 4 9 11 6 16 -3 5 8 18 24 29 41 29 52 26 16 -5
l-30 -26 32 22 c18 11 32 26 30 32 -1 6 4 13 12 16 9 3 11 0 6 -8 -5 -9 -4
-11 4 -6 6 4 9 11 6 16 -3 5 8 18 24 29 41 29 52 26 16 -5 l-30 -26 32 22 c18
11 32 26 30 32 -1 6 4 13 12 16 9 3 11 0 6 -9 -5 -8 -4 -11 1 -6 5 5 9 14 9
19 0 6 6 13 14 16 9 3 11 0 6 -8 -5 -9 -4 -11 4 -6 6 4 9 11 6 16 -3 5 8 18
24 29 41 29 52 26 16 -5 l-30 -26 32 22 c18 11 32 26 30 32 -1 6 4 13 12 16 9
3 11 0 6 -8 -5 -9 -4 -11 4 -6 6 4 9 11 6 16 -3 5 8 18 24 29 36 26 48 27 30
4 -13 -16 -12 -17 3 -5 10 8 16 19 15 24 -1 6 4 13 12 16 9 3 11 0 6 -8 -5 -9
-4 -11 4 -6 6 4 9 11 6 15 -5 9 113 96 121 89 2 -3 -21 -21 -51 -42 -30 -20
-55 -39 -55 -41 0 -3 27 13 60 35 33 23 58 45 55 50 -3 5 8 18 24 29 36 26 48
27 30 4 -13 -16 -12 -17 3 -4 10 7 16 17 13 21 -3 4 6 15 20 24 35 23 45 19
15 -5 l-25 -21 25 14 c14 9 25 21 25 27 0 13 44 50 60 51 6 0 -3 -12 -20 -26
l-30 -26 32 22 c18 11 32 26 30 32 -1 6 4 13 12 16 9 3 11 0 6 -9 -5 -8 -4
-11 1 -6 5 5 9 14 9 20 0 5 6 12 14 15 9 3 11 0 6 -8 -5 -9 -4 -11 4 -6 6 4 9
11 6 16 -6 9 83 75 91 67 2 -2 -14 -16 -36 -31 -22 -14 -40 -29 -40 -32 0 -3
20 9 45 26 25 17 43 35 40 40 -6 9 83 75 91 67 2 -2 -14 -16 -36 -31 -22 -14
-40 -29 -40 -32 0 -3 20 9 45 26 25 17 44 36 42 42 -1 6 4 13 12 16 9 3 11 0
6 -8 -5 -9 -4 -11 4 -6 6 4 9 11 6 16 -6 9 83 75 91 67 2 -2 -14 -16 -36 -31
-22 -14 -40 -29 -40 -32 0 -3 20 9 45 26 25 17 43 35 40 40 -5 9 75 70 92 70
4 0 -5 -12 -22 -26 l-30 -26 32 22 c18 11 32 26 30 32 -1 6 4 13 12 16 9 3 11
0 6 -8 -5 -9 -4 -11 4 -6 6 4 9 11 6 16 -6 9 83 75 91 67 2 -2 -14 -16 -36
-31 -22 -14 -40 -29 -40 -32 0 -3 20 9 45 26 25 17 44 36 42 42 -1 6 4 13 12
16 9 3 11 0 6 -8 -5 -9 -4 -11 4 -6 6 4 9 11 6 16 -3 5 8 18 24 29 41 29 52
26 16 -5 l-30 -26 32 22 c18 11 32 26 30 32 -1 6 4 13 12 16 9 3 11 0 6 -8 -5
-9 -4 -11 4 -6 6 4 9 11 6 16 -5 9 76 70 92 70 4 0 -5 -12 -22 -26 l-30 -26
32 22 c18 11 32 26 30 32 -1 6 4 13 12 16 9 3 11 0 6 -8 -5 -9 -4 -11 4 -6 6
4 9 11 6 16 -3 5 8 18 24 29 41 29 52 26 16 -5 l-30 -26 33 22 c18 12 30 25
27 30 -3 4 6 15 20 24 35 23 45 19 15 -5 l-25 -21 25 14 c14 9 25 21 25 27 0
13 44 50 60 51 6 0 -3 -12 -20 -26 l-30 -26 32 22 c18 11 32 26 30 32 -1 6 4
13 12 16 9 3 11 0 6 -8 -5 -9 -4 -11 4 -6 6 4 9 11 6 16 -5 9 76 70 92 70 4 0
-5 -12 -22 -26 l-30 -26 32 22 c18 11 32 26 30 32 -1 6 4 13 12 16 9 3 11 0 6
-8 -5 -9 -4 -11 4 -6 6 4 9 11 6 16 -3 5 8 18 24 29 41 29 52 26 16 -5 l-30
-26 32 22 c18 11 32 26 30 32 -1 6 4 13 12 16 9 3 11 0 6 -9 -5 -8 -4 -11 1
-6 5 5 9 14 9 20 0 5 6 12 14 15 9 3 11 0 6 -8 -5 -9 -4 -11 4 -6 6 4 9 11 6
16 -8 12 41 43 55 35 6 -3 8 -10 5 -15 -3 -5 9 -18 27 -30 l33 -22 -30 26
c-36 31 -25 34 16 5 16 -11 27 -24 24 -29 -3 -5 9 -18 27 -30 l33 -22 -30 26
c-36 31 -25 34 16 5 16 -11 27 -24 24 -29 -3 -5 0 -12 6 -16 8 -5 9 -3 4 6 -5
8 -3 11 6 8 8 -3 13 -10 12 -16 -1 -5 5 -16 15 -24 15 -12 16 -11 3 5 -18 23
-6 22 30 -4 16 -11 27 -24 24 -29 -3 -5 9 -18 27 -30 l33 -22 -30 26 c-36 31
-25 34 16 5 16 -11 27 -24 24 -29 -3 -5 9 -18 27 -30 l33 -22 -30 26 c-36 31
-25 34 16 5 16 -11 27 -24 24 -29 -3 -5 15 -23 40 -40 25 -17 45 -29 45 -26 0
3 -18 18 -40 32 -22 15 -38 29 -36 32 7 7 96 -60 91 -69 -3 -4 0 -11 6 -15 8
-5 9 -3 4 6 -5 8 -3 11 6 8 8 -3 13 -10 12 -16 -1 -5 5 -16 15 -24 15 -12 16
-11 3 4 -7 10 -9 18 -3 18 11 0 38 -30 35 -39 -1 -3 1 -8 4 -11 4 -3 3 1 -2 9
-5 9 -3 12 6 9 8 -3 13 -10 12 -16 -1 -5 5 -16 15 -24 15 -12 16 -11 3 5 -7 9
-9 17 -3 17 11 0 29 -20 32 -35 1 -5 4 -12 7 -15 4 -3 3 1 -2 9 -5 9 -3 12 6
9 8 -3 13 -10 12 -16 -1 -5 5 -16 15 -24 15 -12 16 -11 3 5 -7 9 -9 17 -3 17
11 0 31 -22 29 -32 -1 -3 2 -10 7 -15 5 -5 6 -2 1 6 -5 9 -3 12 6 9 8 -3 13
-10 12 -16 -2 -6 12 -21 30 -32 l32 -22 -30 26 c-36 31 -25 34 16 5 16 -11 27
-24 24 -29 -3 -5 9 -18 27 -30 l33 -22 -30 26 c-36 31 -25 34 16 5 16 -11 27
-24 24 -29 -3 -5 0 -12 6 -16 8 -5 9 -3 4 6 -5 8 -3 11 6 8 8 -3 13 -10 12
-16 -1 -5 5 -16 15 -24 15 -12 16 -11 3 5 -7 9 -9 17 -3 17 11 0 31 -22 29
-32 -1 -3 2 -10 7 -15 5 -5 6 -2 1 6 -5 9 -3 12 6 9 8 -3 13 -10 12 -16 -2 -6
12 -21 30 -32 l32 -22 -30 26 c-36 31 -25 34 16 5 16 -11 27 -24 24 -29 -3 -5
9 -18 27 -30 l33 -22 -30 26 c-36 31 -25 34 16 5 16 -11 27 -24 24 -29 -3 -5
9 -18 27 -30 l33 -22 -30 26 c-16 14 -25 26 -20 26 16 -1 60 -38 60 -51 0 -6
11 -18 25 -27 l25 -14 -25 21 c-32 27 -17 27 21 0 16 -11 27 -24 24 -29 -3 -5
0 -12 6 -16 8 -5 9 -3 4 6 -5 8 -3 11 6 8 8 -3 14 -10 14 -15 0 -6 4 -15 9
-20 5 -5 6 -2 1 6 -5 9 -3 12 6 9 8 -3 13 -10 12 -16 -1 -5 5 -16 15 -24 15
-12 16 -11 3 5 -7 9 -9 17 -3 17 11 0 39 -31 34 -37 -2 -3 0 -8 4 -11 4 -4 4
-1 -1 7 -5 9 -3 12 6 9 8 -3 13 -10 12 -16 -1 -5 5 -16 15 -24 15 -12 16 -11
3 4 -7 10 -9 18 -3 18 11 0 29 -20 32 -35 1 -5 4 -12 7 -15 4 -3 3 1 -2 9 -5
9 -3 12 6 9 8 -3 13 -10 12 -16 -2 -6 12 -21 30 -32 l32 -22 -30 26 c-36 31
-25 34 16 5 16 -11 27 -24 24 -29 -3 -5 9 -18 27 -30 l33 -22 -30 26 c-36 31
-25 34 16 5 16 -11 27 -24 24 -29 -3 -5 0 -12 6 -16 8 -5 9 -3 4 6 -5 8 -3 11
6 8 8 -3 13 -10 12 -16 -1 -5 5 -16 15 -24 15 -12 16 -11 3 5 -8 10 -9 17 -3
17 11 0 27 -19 27 -32 0 -3 4 -10 9 -15 5 -5 6 -2 1 6 -5 9 -3 12 6 9 8 -3 13
-10 12 -16 -1 -5 5 -16 15 -24 15 -12 16 -11 3 5 -18 23 -6 22 30 -4 16 -11
27 -24 24 -29 -3 -5 9 -18 27 -30 l33 -22 -30 26 c-36 31 -25 34 16 5 16 -11
27 -24 24 -29 -3 -5 9 -18 27 -30 l33 -22 -30 26 c-36 31 -25 34 16 5 16 -11
27 -24 24 -29 -3 -5 9 -18 27 -30 l33 -22 -30 26 c-36 31 -25 34 16 5 16 -11
27 -24 24 -29 -3 -5 0 -12 6 -16 8 -5 9 -3 4 6 -5 8 -3 11 6 8 8 -3 14 -10 14
-16 0 -5 4 -14 9 -19 5 -5 6 -2 1 6 -5 9 -3 12 6 9 8 -3 13 -10 12 -16 -1 -5
5 -16 15 -24 15 -12 16 -11 3 4 -7 10 -9 18 -3 18 12 0 30 -21 30 -34 0 -5 28
-30 63 -54 34 -25 60 -41 56 -35 -4 5 -31 27 -62 48 -30 21 -53 40 -51 43 8 7
136 -89 131 -98 -3 -5 0 -12 6 -16 8 -5 9 -3 4 6 -5 8 -3 11 6 8 8 -3 13 -10
12 -16 -2 -6 12 -21 30 -32 l32 -22 -30 26 c-36 31 -25 34 16 5 16 -11 27 -24
24 -29 -3 -5 9 -18 27 -30 l33 -22 -30 26 c-36 31 -25 34 16 5 16 -11 27 -24
24 -29 -3 -5 0 -12 6 -16 8 -5 9 -3 4 6 -5 8 -3 11 6 8 8 -3 13 -10 12 -16 -1
-5 5 -16 15 -24 15 -12 16 -11 3 5 -18 23 -6 22 30 -4 16 -11 27 -24 24 -29
-3 -5 9 -18 27 -30 l33 -22 -30 26 c-36 31 -25 34 16 5 16 -11 27 -24 24 -29
-3 -5 9 -18 27 -30 l33 -22 -30 26 c-36 31 -25 34 16 5 16 -11 27 -24 24 -29
-3 -5 9 -18 27 -30 l33 -22 -30 26 c-36 31 -25 34 16 5 16 -11 27 -24 24 -29
-3 -5 0 -12 6 -16 8 -5 9 -3 4 6 -5 8 -3 11 6 8 8 -3 13 -10 12 -16 -1 -5 5
-16 15 -24 15 -12 16 -11 3 5 -18 23 -6 22 30 -4 16 -11 27 -24 24 -29 -3 -5
9 -18 27 -30 l33 -22 -30 26 c-36 31 -25 34 16 5 16 -11 27 -24 24 -29 -3 -5
9 -18 27 -30 l33 -22 -30 26 c-36 31 -25 34 16 5 16 -11 27 -24 24 -29 -3 -5
9 -18 27 -30 l33 -22 -30 26 c-16 14 -25 26 -20 26 16 -1 60 -38 60 -51 0 -6
11 -18 25 -27 l25 -14 -25 21 c-30 24 -20 28 15 5 14 -9 23 -20 20 -24 -3 -5
-1 -11 4 -14 5 -3 8 6 7 22 -2 15 -166 500 -365 1077 -572 1655 -646 1869
-706 2045 -31 91 -83 241 -116 334 -32 94 -58 170 -56 171 1 1 16 11 34 23 38
27 50 28 32 5 -13 -16 -12 -17 3 -4 10 7 16 17 13 21 -5 8 74 64 81 57 3 -3
-11 -15 -30 -27 -33 -20 -53 -41 -23 -24 39 23 66 46 64 56 -1 6 4 13 12 16 9
3 11 0 6 -9 -5 -8 -4 -11 1 -6 5 5 9 14 9 19 0 6 6 13 14 16 9 3 11 0 6 -8 -5
-9 -4 -11 4 -6 6 4 9 11 6 16 -6 9 203 155 211 147 2 -2 -21 -20 -51 -41 -30
-20 -55 -39 -55 -41 0 -3 27 13 60 35 33 22 59 46 57 52 -1 6 4 13 12 16 9 3
11 0 6 -9 -5 -8 -4 -11 1 -6 5 5 9 14 9 19 0 6 6 13 14 16 9 3 11 0 6 -9 -5
-8 -4 -11 1 -6 5 5 9 14 9 19 0 6 6 13 14 16 9 3 11 0 6 -8 -5 -9 -4 -11 4 -6
6 4 9 11 6 16 -6 9 113 95 121 87 2 -2 -14 -16 -36 -31 -22 -14 -40 -29 -40
-32 0 -3 20 9 45 26 25 17 43 35 40 39 -5 9 74 65 81 58 3 -3 -11 -15 -30 -27
-33 -20 -53 -41 -23 -24 39 23 66 46 64 56 -1 6 4 13 12 16 9 3 11 0 6 -8 -5
-9 -4 -11 4 -6 6 4 9 11 6 16 -6 9 143 115 151 107 2 -2 -21 -20 -51 -41 -30
-20 -55 -39 -55 -41 0 -3 27 13 60 35 33 23 58 45 55 49 -5 9 74 65 81 58 3
-3 -11 -15 -30 -27 -33 -20 -53 -41 -23 -24 39 23 66 46 64 56 -1 6 4 13 12
16 9 3 11 0 6 -9 -5 -8 -4 -11 1 -6 5 5 9 14 9 19 0 6 6 13 14 16 9 3 11 0 6
-8 -5 -9 -4 -11 4 -6 6 4 9 11 6 16 -6 9 113 95 121 87 2 -2 -14 -16 -36 -31
-22 -14 -40 -29 -40 -32 0 -3 20 9 45 26 25 17 44 36 42 42 -1 6 4 13 12 16 9
3 11 0 6 -9 -5 -8 -4 -11 1 -6 5 5 9 14 9 19 0 6 6 13 14 16 9 3 11 0 6 -9 -5
-8 -4 -11 1 -6 5 5 9 14 9 19 0 6 6 13 14 16 9 3 11 0 6 -9 -5 -8 -4 -11 1 -6
5 5 9 14 9 19 0 6 6 13 14 16 9 3 11 0 6 -8 -5 -9 -4 -11 4 -6 6 4 9 11 6 16
-3 5 5 16 17 24 26 19 42 21 32 4 -4 -7 -3 -8 5 -4 6 4 9 11 6 16 -3 5 21 27
54 49 68 46 91 54 46 15 l-30 -26 33 22 c18 12 30 25 27 30 -3 4 6 15 20 24
35 23 45 19 15 -5 l-25 -21 25 14 c14 9 25 21 25 28 0 8 6 15 14 18 9 3 11 0
6 -8 -5 -9 -4 -11 4 -6 6 4 9 11 6 16 -6 9 173 135 181 127 2 -2 -21 -20 -51
-41 -30 -20 -55 -39 -55 -41 0 -3 27 13 60 35 33 23 58 45 55 49 -5 9 74 65
81 58 3 -3 -11 -15 -30 -27 -33 -20 -53 -41 -23 -24 39 23 66 46 64 56 -1 6 4
13 12 16 9 3 11 0 6 -9 -5 -8 -4 -11 1 -6 5 5 9 14 9 19 0 6 6 13 14 16 9 3
11 0 6 -8 -5 -9 -4 -11 4 -6 6 4 9 11 6 16 -6 9 113 95 121 87 2 -2 -21 -20
-51 -41 -30 -20 -55 -39 -55 -41 0 -3 27 13 60 35 33 22 59 46 57 52 -1 6 4
13 12 16 9 3 11 0 6 -8 -5 -9 -4 -11 4 -6 6 4 9 11 6 16 -3 4 6 15 20 24 35
23 45 19 15 -5 l-25 -21 25 14 c14 9 25 21 25 28 0 8 6 15 14 18 9 3 11 0 6
-8 -5 -9 -4 -11 4 -6 6 4 9 11 6 16 -6 9 143 115 151 107 2 -2 -14 -16 -36
-31 -22 -14 -40 -29 -40 -32 0 -3 20 9 45 26 25 17 44 36 42 42 -1 6 4 13 12
16 9 3 11 0 6 -8 -5 -9 -4 -11 4 -6 6 4 9 11 6 16 -3 4 6 15 20 24 35 23 45
19 15 -5 l-25 -21 25 14 c14 9 25 21 25 28 0 8 6 15 14 18 9 3 11 0 6 -8 -5
-9 -4 -11 4 -6 6 4 9 11 6 16 -6 9 173 135 181 127 2 -2 -21 -20 -51 -41 -30
-20 -55 -39 -55 -41 0 -3 27 13 60 35 33 23 58 45 56 49 -3 4 18 25 48 45 54
37 73 45 60 24 -4 -7 -3 -8 5 -4 6 4 9 11 6 16 -6 9 143 115 151 107 2 -2 -21
-20 -51 -41 -30 -20 -55 -39 -55 -41 0 -3 27 13 60 35 33 22 59 46 57 52 -1 6
4 13 12 16 9 3 11 0 6 -9 -5 -8 -4 -11 1 -6 5 5 9 14 9 20 0 5 6 12 14 15 9 3
11 0 6 -9 -5 -8 -4 -11 1 -6 5 5 9 14 9 20 0 5 6 12 14 15 9 3 11 0 6 -8 -5
-9 -4 -11 4 -6 6 4 9 12 6 17 -4 5 1 12 9 15 62 24 -46 26 -1131 20 -632 -3
-1449 -7 -1817 -9 l-669 -2 -84 230 c-46 127 -122 336 -170 465 -47 129 -116
318 -153 420 -259 706 -424 1155 -653 1782 -144 395 -265 718 -268 718 -4 0
-14 -21 -22 -47z"/>
        <path d="M7724 7800 c2 -8 12 -40 22 -70 l18 -55 1096 3 c602 1 1113 4 1135 6
22 2 -469 3 -1092 2 l-1132 -1 -5 21 c-3 12 -15 41 -26 65 -11 24 -18 37 -16
29z"/>
        <path d="M3975 7769 c-429 -5 -888 -10 -1020 -12 -132 -2 188 -1 710 1 523 3
1101 8 1285 12 l335 7 -265 0 c-146 0 -616 -4 -1045 -8z"/>
    </g>
</svg>
