<?xml version="1.0" standalone="no"?>
<!DOCTYPE svg PUBLIC "-//W3C//DTD SVG 20010904//EN"
 "http://www.w3.org/TR/2001/REC-SVG-20010904/DTD/svg10.dtd">
<svg version="1.0"
    xmlns="http://www.w3.org/2000/svg" width="1280.000000pt" height="1024.000000pt" viewBox="0 0 1280.000000 1024.000000" preserveAspectRatio="xMidYMid meet">
    <metadata>
Created by potrace 1.16, written by Peter Selinger 2001-2019
    </metadata>
    <g transform="translate(0.000000,1024.000000) scale(0.100000,-0.100000)" fill="#8682E6" stroke="none">
        <path d="M6100 9724 c-19 -2 -91 -9 -160 -15 -69 -6 -206 -24 -305 -41 -1799
-299 -3263 -1652 -3709 -3428 -47 -186 -97 -467 -118 -665 -20 -185 -17 -772
5 -957 113 -949 485 -1800 1099 -2513 112 -130 365 -382 493 -491 706 -601
1558 -971 2490 -1080 184 -21 624 -29 825 -15 1330 96 2542 751 3350 1811 445
585 751 1283 874 2000 52 298 60 412 61 780 0 374 -7 471 -56 770 -153 931
-605 1813 -1273 2483 -786 790 -1778 1255 -2883 1352 -148 13 -586 18 -693 9z
m710 -1048 c820 -102 1541 -449 2109 -1015 595 -593 945 -1325 1042 -2181 17
-147 17 -570 0 -720 -88 -786 -389 -1462 -914 -2049 -290 -323 -647 -591
-1062 -795 -391 -193 -739 -297 -1180 -352 -195 -25 -615 -25 -810 0 -447 56
-806 164 -1194 357 -869 432 -1508 1179 -1810 2113 -115 353 -165 687 -165
1086 0 324 28 565 99 857 280 1138 1099 2064 2200 2488 321 123 643 193 1055
229 97 8 512 -4 630 -18z"/>
        <path d="M6319 8491 c-88 -28 -154 -69 -218 -135 -63 -66 -99 -129 -125 -215
-14 -49 -16 -233 -16 -1906 0 -2044 -5 -1891 63 -2018 35 -67 136 -166 205
-201 106 -54 256 -72 372 -45 68 16 121 45 585 331 237 145 667 409 956 587
290 178 546 342 569 365 211 204 213 538 4 743 -102 100 -210 142 -365 143
-148 0 -157 -4 -787 -389 l-572 -349 0 1321 c0 1448 2 1400 -60 1515 -64 119
-161 203 -289 248 -85 30 -236 32 -322 5z"/>
    </g>
</svg>
