<?xml version="1.0" standalone="no"?>
<!DOCTYPE svg PUBLIC "-//W3C//DTD SVG 20010904//EN"
 "http://www.w3.org/TR/2001/REC-SVG-20010904/DTD/svg10.dtd">
<svg version="1.0"
    xmlns="http://www.w3.org/2000/svg" width="225.000000pt" height="225.000000pt" viewBox="0 0 225.000000 225.000000" preserveAspectRatio="xMidYMid meet">
    <metadata>
Created by potrace 1.16, written by Peter Selinger 2001-2019
    </metadata>
    <g transform="translate(0.000000,225.000000) scale(0.100000,-0.100000)" fill="#8682E6" stroke="none">
        <path d="M482 2200 c-11 -11 -24 -35 -27 -52 -3 -18 -4 -491 -3 -1050 l3
-1016 24 -26 24 -26 618 0 618 0 28 24 28 24 3 1019 c1 560 0 1033 -3 1051 -3
17 -16 41 -27 52 -21 20 -36 20 -643 20 -607 0 -622 0 -643 -20z m838 -75 c6
-8 10 -22 8 -32 -3 -17 -19 -18 -203 -18 -184 0 -200 1 -203 18 -8 43 10 47
203 47 147 0 185 -3 195 -15z m370 -970 l0 -825 -565 0 -565 0 0 825 0 825
565 0 565 0 0 -825z m-503 -885 c19 -11 35 -31 39 -47 3 -15 7 -34 10 -41 7
-25 -24 -81 -55 -96 -50 -26 -88 -21 -127 18 -29 29 -34 41 -34 81 0 90 87
134 167 85z"/>
        <path d="M1300 1783 c-29 -15 -62 -23 -96 -23 l-52 0 -11 -50 c-24 -111 -6
-241 46 -330 30 -50 115 -136 145 -146 29 -9 94 41 145 110 63 85 87 173 80
290 -7 124 -8 126 -72 126 -34 0 -67 8 -96 23 l-44 22 -45 -22z"/>
        <path d="M860 1680 c0 -27 -6 -33 -42 -49 -112 -48 -150 -160 -82 -241 14 -16
60 -46 102 -66 105 -49 132 -76 132 -130 0 -35 -5 -47 -32 -69 -30 -25 -38
-27 -98 -23 -36 3 -79 12 -96 21 -30 15 -30 15 -42 -16 -7 -17 -8 -35 -4 -39
4 -4 38 -15 75 -24 63 -16 67 -19 67 -45 0 -26 4 -29 30 -29 28 0 30 3 30 35
0 20 5 35 12 35 28 0 95 43 117 75 17 25 24 50 24 88 2 82 -21 110 -132 165
-115 56 -131 70 -131 120 0 43 27 75 71 86 25 5 104 -5 140 -19 10 -4 19 3 28
21 14 32 8 38 -54 55 -22 6 -46 13 -52 15 -7 2 -13 17 -13 34 0 25 -4 30 -25
30 -21 0 -25 -5 -25 -30z"/>
        <path d="M1387 1143 c-4 -3 -7 -150 -7 -325 l0 -318 80 0 80 0 0 325 0 325
-73 0 c-41 0 -77 -3 -80 -7z"/>
        <path d="M1050 755 l0 -255 78 0 77 0 0 255 0 255 -77 0 -78 0 0 -255z"/>
        <path d="M717 833 c-4 -3 -7 -80 -7 -170 l0 -163 80 0 80 0 0 170 0 170 -73 0
c-41 0 -77 -3 -80 -7z"/>
    </g>
</svg>
