<?xml version="1.0" standalone="no"?>
<!DOCTYPE svg PUBLIC "-//W3C//DTD SVG 20010904//EN"
 "http://www.w3.org/TR/2001/REC-SVG-20010904/DTD/svg10.dtd">
<svg version="1.0"
    xmlns="http://www.w3.org/2000/svg" width="1280.000000pt" height="1280.000000pt" viewBox="0 0 1280.000000 1280.000000" preserveAspectRatio="xMidYMid meet">
    <metadata>
Created by potrace 1.16, written by Peter Selinger 2001-2019
    </metadata>
    <g transform="translate(0.000000,1280.000000) scale(0.100000,-0.100000)" fill="#8682E6" stroke="none">
        <path d="M5992 12093 l-2 -333 -47 0 c-27 0 -97 -7 -158 -15 -60 -8 -116 -15
-124 -15 -8 0 -12 -2 -9 -5 3 -3 64 1 136 10 72 9 153 14 179 12 l48 -3 -56
-2 c-30 -1 -107 -9 -170 -17 -649 -85 -1106 -255 -1519 -567 -46 -34 -53 -38
-25 -13 50 45 218 159 308 210 37 20 66 39 64 41 -11 11 -258 -148 -378 -243
-132 -106 -309 -283 -246 -247 6 4 -4 -9 -22 -29 -19 -21 -37 -37 -40 -37 -3
0 8 14 24 30 16 17 26 30 22 30 -9 0 -66 -63 -67 -73 0 -5 6 -5 13 -1 6 4 3
-2 -7 -14 -23 -26 -34 -29 -15 -4 11 14 10 13 -9 -2 -23 -20 -31 -42 -9 -30 8
5 8 2 -2 -9 -16 -20 -26 -23 -15 -4 5 8 2 8 -9 -2 -20 -16 -23 -36 -4 -25 8 5
8 2 -2 -9 -16 -20 -26 -23 -15 -4 5 8 2 8 -9 -2 -20 -16 -23 -36 -4 -25 8 5 8
2 -2 -9 -16 -20 -26 -23 -15 -4 5 8 2 8 -9 -2 -19 -15 -23 -36 -5 -25 7 4 8 3
4 -5 -4 -6 -11 -9 -16 -6 -5 3 -14 -3 -19 -14 -14 -26 -14 -34 2 -25 7 4 9 3
4 -2 -5 -5 -14 -9 -19 -9 -6 0 -13 -6 -16 -14 -3 -9 0 -11 8 -6 9 5 11 4 6 -4
-4 -6 -11 -9 -16 -6 -12 8 -43 -53 -34 -67 4 -7 3 -8 -5 -4 -8 5 -29 -30 -66
-107 -57 -119 -62 -132 -46 -122 6 3 3 -15 -5 -40 -9 -25 -20 -47 -25 -50 -4
-3 -1 11 7 31 8 20 13 38 11 41 -7 7 -68 -169 -63 -181 2 -6 5 -3 5 6 1 9 5
19 10 23 6 3 3 -15 -5 -40 -16 -46 -31 -63 -19 -22 5 17 4 19 -4 7 -13 -18
-14 -53 -2 -46 5 4 7 -3 4 -15 -4 -15 -8 -17 -14 -8 -5 9 -9 6 -13 -12 -36
-154 -47 -208 -50 -257 -4 -47 -3 -51 4 -22 10 39 11 48 -11 -195 -22 -251 0
-655 51 -914 5 -30 8 -56 6 -59 -5 -4 -9 13 -36 171 -10 56 -18 92 -19 81 -1
-19 24 -169 48 -282 11 -56 25 -69 17 -17 -3 22 5 2 18 -45 27 -93 31 -113 16
-90 -20 32 -9 -13 36 -137 57 -158 150 -347 166 -337 7 4 8 3 4 -4 -9 -14 22
-75 34 -67 5 3 12 0 16 -6 4 -8 3 -9 -4 -5 -18 11 -15 -3 9 -40 11 -19 25 -32
29 -29 5 3 12 0 16 -6 5 -8 3 -9 -6 -4 -8 5 -11 3 -8 -6 3 -8 10 -13 16 -12 5
1 16 -5 24 -15 12 -15 11 -16 -4 -3 -26 20 -22 -2 4 -25 13 -12 18 -13 13 -4
-8 13 -7 13 8 1 18 -15 23 -26 7 -16 -17 10 -11 -12 7 -26 15 -12 16 -12 8 1
-8 13 -7 13 8 1 18 -15 23 -26 7 -16 -19 12 -10 -12 12 -31 22 -19 23 -19 8 1
-11 15 -7 14 13 -4 28 -25 38 -43 12 -21 -8 7 -15 9 -15 5 0 -17 153 -175 162
-168 6 3 8 1 5 -4 -7 -10 125 -129 238 -215 115 -87 415 -271 415 -255 0 3
-35 24 -77 48 -103 56 -257 156 -352 228 -80 61 -216 181 -205 181 3 0 33 -25
66 -55 157 -145 380 -293 638 -420 263 -130 525 -233 970 -380 113 -37 209
-72 215 -77 5 -5 -10 -2 -34 7 -24 8 -46 13 -48 11 -2 -2 12 -9 31 -16 l36
-12 0 -1827 0 -1827 -102 13 c-294 36 -609 120 -814 218 -105 49 -254 138
-254 150 0 3 19 -7 43 -23 23 -16 49 -32 57 -37 28 -15 -4 11 -72 59 -37 26
-94 71 -126 101 -33 30 -62 51 -66 47 -4 -4 -6 -2 -4 3 4 13 -63 96 -72 90 -4
-3 -14 3 -21 13 -13 15 -12 16 4 3 9 -7 17 -9 17 -3 0 11 -30 38 -39 35 -3 -1
-8 1 -11 4 -3 4 1 3 9 -2 9 -5 12 -3 9 6 -3 8 -10 14 -15 14 -6 0 -15 4 -20 9
-5 5 -2 6 6 1 9 -5 12 -3 9 6 -3 8 -10 14 -15 14 -6 0 -15 4 -20 9 -5 5 -3 6
5 2 15 -9 15 -1 1 25 -5 11 -14 17 -19 14 -5 -3 -12 0 -16 6 -4 8 -3 9 4 5 17
-10 16 -8 -27 85 -64 139 -113 295 -141 454 -21 117 -30 148 -24 85 3 -30 10
-71 15 -90 5 -19 8 -44 8 -55 -1 -28 -16 34 -34 145 -22 144 -35 317 -35 496
l0 161 -282 6 c-156 4 -390 10 -520 14 l-238 6 0 -147 c0 -215 18 -468 46
-656 35 -231 36 -241 24 -210 -17 46 0 -59 27 -160 50 -192 155 -476 172 -465
4 2 7 -6 7 -18 -1 -12 4 -21 11 -20 6 1 14 -4 17 -13 3 -8 2 -12 -4 -9 -16 10
-12 -1 20 -66 17 -33 35 -57 40 -54 5 3 12 0 16 -6 5 -8 3 -9 -6 -4 -8 5 -11
3 -8 -6 3 -8 11 -13 17 -11 7 1 10 -2 6 -7 -8 -14 23 -73 35 -66 5 3 12 0 16
-6 5 -8 3 -9 -6 -4 -10 6 -12 4 -7 -7 7 -20 77 -118 84 -118 2 0 1 6 -3 13 -5
8 -2 8 9 -2 18 -15 23 -26 7 -16 -17 10 -11 -12 7 -26 15 -12 16 -12 8 1 -8
13 -7 13 8 1 18 -15 23 -26 7 -16 -19 12 -10 -12 12 -31 22 -19 23 -19 8 1
-15 20 -14 20 8 1 23 -20 30 -32 12 -21 -21 13 -9 -13 17 -36 l28 -24 -20 25
-20 25 28 -24 c27 -24 36 -38 17 -26 -5 3 -10 2 -10 -3 0 -18 256 -258 353
-331 130 -97 286 -192 433 -263 67 -32 126 -58 130 -58 5 1 -49 29 -121 64
-71 34 -178 92 -236 128 -100 61 -269 183 -269 194 0 3 37 -23 82 -57 393
-300 947 -498 1603 -574 176 -21 251 -35 150 -29 -76 5 -78 -1 -2 -11 l47 -6
2 -652 3 -652 5 655 5 655 3 -652 2 -653 390 0 390 0 2 648 3 647 5 -650 5
-650 3 646 2 647 31 6 c17 3 52 6 78 6 25 0 100 7 166 15 66 8 126 15 134 15
8 0 12 2 9 5 -3 3 -66 -1 -139 -9 -160 -17 -342 -29 -244 -15 33 4 116 13 185
19 678 63 1250 263 1685 589 55 42 159 132 230 201 72 68 112 105 90 82 -21
-23 -36 -42 -32 -42 8 0 91 88 96 104 2 6 -4 5 -15 -4 -12 -9 -10 -4 5 13 27
30 41 37 20 10 -7 -10 -1 -7 14 6 30 27 38 52 10 30 -15 -11 -14 -10 1 9 21
24 32 29 20 10 -5 -9 -2 -9 9 1 18 14 24 36 7 26 -16 -10 -11 1 7 16 15 12 16
12 8 -1 -8 -13 -7 -13 8 -1 20 16 23 36 5 25 -8 -4 -10 -3 -5 2 5 5 14 9 20 9
5 0 12 6 15 14 3 8 0 11 -7 7 -17 -11 -13 0 6 15 15 12 16 12 8 -1 -8 -13 -7
-13 8 -1 20 16 23 36 5 25 -8 -4 -10 -3 -5 2 5 5 14 9 20 9 5 0 12 6 15 14 3
9 0 11 -8 6 -9 -5 -11 -4 -6 4 4 6 11 9 16 6 12 -7 43 52 35 66 -4 5 -1 8 7 7
8 -2 41 52 86 141 70 140 88 185 57 145 -14 -18 -15 -17 -4 8 7 15 15 25 19
23 9 -6 23 25 15 33 -3 3 -5 -1 -5 -8 0 -7 -2 -11 -5 -8 -8 8 6 39 15 33 4 -3
13 9 19 27 15 42 12 49 -5 13 -8 -16 -13 -23 -11 -15 6 31 60 191 63 187 2 -2
-1 -18 -6 -37 -5 -19 -8 -36 -6 -38 9 -8 68 216 62 232 -2 6 -5 2 -5 -8 -1
-11 -3 -17 -6 -14 -3 3 1 36 9 74 50 240 67 406 76 729 l8 290 -3 -295 c-4
-289 -13 -404 -49 -610 -24 -133 -27 -159 -11 -100 16 59 26 118 52 305 22
154 25 738 5 855 -7 41 -15 90 -18 109 -3 18 -7 31 -10 28 -3 -2 2 -50 11
-105 9 -56 14 -120 12 -144 l-4 -43 -1 50 c-1 28 -11 103 -22 168 -20 118 -24
169 -10 112 l8 -30 0 30 c0 17 -3 39 -8 50 l-9 20 -1 -20 -1 -20 -9 20 c-5 11
-9 29 -9 40 l0 20 9 -20 9 -20 0 20 c0 11 -4 29 -9 40 l-9 20 -1 -20 c-2 -17
-3 -16 -10 5 -11 35 -11 60 1 35 16 -36 -2 45 -27 119 -13 39 -30 74 -39 78
-8 5 -15 14 -15 21 0 7 4 6 11 -3 8 -12 9 -10 4 7 -15 54 -55 138 -64 136 -6
-2 -8 3 -5 11 8 20 -64 158 -78 150 -7 -4 -8 -3 -4 4 9 14 -22 75 -34 67 -5
-3 -12 0 -16 6 -5 8 -3 9 6 4 8 -5 11 -3 8 6 -3 8 -10 13 -16 12 -6 -2 -9 3
-6 11 3 8 0 17 -7 22 -8 5 -10 3 -4 -6 5 -9 4 -11 -4 -6 -6 4 -9 11 -6 16 8
13 -14 52 -25 45 -5 -3 -12 0 -16 6 -4 8 -3 9 4 5 18 -11 14 10 -5 25 -11 10
-14 10 -9 2 11 -19 1 -16 -15 4 -10 11 -10 14 -1 9 6 -4 12 -4 12 -1 0 10 -78
113 -92 121 -8 5 -8 1 2 -12 14 -19 14 -19 -8 0 -23 20 -30 32 -12 21 69 -43
-219 255 -340 351 -142 113 -316 230 -430 289 -63 33 -26 6 83 -59 122 -73
274 -178 334 -232 21 -19 -12 3 -74 48 -451 334 -1027 563 -1755 699 -98 18
-175 35 -173 37 5 5 90 -9 259 -44 118 -24 143 -28 135 -20 -4 3 -181 40 -326
68 l-53 9 0 1690 0 1689 53 1 52 2 -57 6 c-31 3 -60 10 -64 14 -4 4 6 5 22 3
16 -3 60 -8 97 -11 152 -13 380 -60 537 -112 100 -32 330 -135 330 -148 0 -3
-18 4 -40 15 -64 33 -46 15 25 -25 94 -52 190 -127 264 -203 35 -37 58 -58 50
-47 -10 16 -7 15 14 -4 28 -25 38 -43 12 -21 -8 7 -15 8 -15 2 0 -11 31 -39
37 -34 3 2 8 0 11 -4 4 -4 1 -4 -7 1 -9 5 -12 3 -9 -6 3 -8 10 -14 16 -14 5 0
14 -4 19 -9 5 -5 2 -6 -6 -1 -9 5 -12 3 -9 -6 3 -8 10 -14 16 -14 5 0 14 -4
19 -9 5 -5 3 -6 -4 -2 -16 9 -16 1 -2 -25 5 -11 14 -17 19 -14 5 3 14 -5 20
-17 11 -22 10 -22 -4 -4 -25 31 -19 11 19 -68 19 -40 35 -80 35 -89 0 -9 5
-19 12 -23 8 -5 9 -1 4 12 -4 12 -4 15 2 9 14 -15 33 -77 22 -70 -6 4 -10 13
-10 22 0 9 -2 14 -5 11 -10 -9 6 -57 18 -55 6 1 12 -7 14 -18 4 -17 2 -18 -7
-5 -10 12 -11 10 -6 -10 18 -77 47 -235 55 -300 l10 -75 -4 90 c-3 74 -2 81 5
40 5 -27 12 -123 16 -211 l7 -162 261 -6 c144 -3 378 -7 520 -10 l259 -3 -6
171 c-9 230 -38 472 -74 626 -3 14 -3 22 1 19 3 -3 12 -34 20 -70 8 -35 14
-56 15 -46 1 20 -25 148 -39 187 -5 14 -11 38 -15 54 -4 20 -9 26 -14 18 -5
-8 -12 2 -20 29 -7 22 -15 48 -18 58 -4 14 -3 14 6 1 18 -25 12 3 -18 86 -16
43 -33 78 -38 77 -6 -1 -15 10 -22 25 -11 25 -10 26 4 8 22 -29 19 -16 -15 59
-16 36 -34 64 -38 61 -5 -3 -8 5 -8 17 1 13 -4 21 -12 19 -8 -1 -11 2 -7 7 8
14 -33 93 -45 86 -5 -3 -12 0 -16 6 -5 8 -3 9 6 4 8 -5 11 -3 8 6 -3 8 -11 13
-17 11 -7 -1 -10 2 -6 8 8 13 -13 52 -25 45 -5 -3 -12 0 -16 6 -5 8 -3 9 6 4
8 -5 11 -3 8 6 -3 8 -10 14 -15 14 -6 0 -15 4 -20 9 -5 5 -2 6 6 1 9 -5 12 -3
9 6 -3 8 -10 14 -16 14 -6 0 -17 7 -24 15 -11 12 -11 12 5 1 10 -8 17 -9 17
-3 0 11 -19 27 -32 27 -3 0 -10 4 -15 9 -5 5 -3 6 5 2 6 -4 12 -3 12 3 0 10
-19 26 -32 26 -3 0 -10 4 -15 9 -5 5 -3 6 5 2 22 -13 12 10 -15 35 -21 18 -24
19 -13 4 11 -15 8 -14 -13 4 -28 25 -38 43 -12 21 8 -7 15 -8 15 -3 0 6 -53
64 -118 129 -105 107 -323 285 -384 314 -21 10 -21 9 2 -7 104 -75 218 -163
230 -178 8 -10 -14 5 -50 34 -208 168 -482 313 -781 414 -278 94 -532 143
-934 181 -22 2 10 2 70 1 132 -4 126 3 -11 13 l-99 7 -5 330 -5 330 -5 -330
-5 -330 -3 328 -2 327 -390 0 -390 0 -2 -332 -3 -333 -5 335 -5 335 -3 -332z
m-32 -1403 c-53 -6 -53 -7 -12 -8 l42 -2 0 -1575 c0 -1495 -1 -1574 -17 -1570
-10 3 -4 -1 12 -9 98 -48 -173 42 -420 140 -144 57 -421 190 -431 206 -4 5 12
0 35 -11 61 -32 50 -18 -16 19 -101 57 -232 151 -311 223 -60 56 -66 59 -27
18 28 -29 89 -82 138 -119 48 -36 87 -67 87 -69 0 -2 -28 15 -62 39 -56 39
-251 219 -220 203 20 -10 14 11 -10 31 -19 15 -20 16 -9 2 19 -25 8 -22 -15 4
-10 12 -13 18 -6 14 6 -4 12 -5 12 -2 0 11 -62 91 -70 91 -5 0 -12 4 -17 9 -5
5 -3 6 5 2 6 -4 12 -4 11 1 -1 17 -88 177 -89 163 0 -8 -7 0 -15 19 -19 43
-19 65 1 26 8 -16 12 -22 9 -12 -30 110 -38 129 -46 116 -5 -8 -9 -9 -9 -4 0
6 -3 21 -5 35 -5 22 -4 23 5 5 12 -23 12 -22 -19 150 -12 61 -24 169 -29 240
-7 95 -9 111 -10 60 -1 -38 3 -108 8 -155 20 -181 20 -186 5 -110 -34 172 -34
566 0 712 10 45 13 50 9 18 -19 -146 -23 -191 -22 -245 1 -42 3 -27 9 50 10
116 41 290 65 357 17 48 18 61 4 53 -6 -3 -7 1 -4 10 4 9 9 13 12 10 5 -5 92
168 92 182 0 2 -5 1 -12 -3 -7 -4 -8 -3 -4 5 4 6 11 9 16 6 5 -3 14 3 19 14
14 26 14 34 -1 25 -8 -4 -10 -3 -5 2 5 5 14 9 19 9 6 0 13 6 16 14 3 9 0 11
-9 5 -12 -7 -12 -5 0 9 16 20 26 23 15 5 -5 -9 -2 -9 9 1 20 16 23 36 5 25 -9
-5 -9 -2 1 9 16 20 25 23 15 5 -4 -7 2 -4 14 6 26 23 30 44 5 26 -10 -7 23 28
74 78 152 150 332 254 583 336 181 59 456 114 570 113 l55 0 -55 -7z m837
-2548 c-1 -466 -2 -82 -2 853 0 935 1 1316 2 847 2 -470 2 -1235 0 -1700z
m-790 176 c-1 -436 -2 -82 -2 787 0 869 1 1226 2 793 2 -432 2 -1143 0 -1580z
m0 -4650 c-1 -502 -2 -94 -2 907 0 1001 1 1412 2 913 2 -498 2 -1317 0 -1820z
m928 2531 c350 -75 657 -180 895 -305 109 -58 264 -157 276 -176 4 -6 -22 9
-57 34 -68 47 -101 68 -84 51 30 -29 146 -103 154 -98 5 3 58 -43 118 -101 59
-59 100 -101 91 -94 -31 21 -20 -5 14 -36 28 -24 30 -25 13 -4 -19 25 -19 25
0 7 11 -10 20 -25 20 -35 0 -9 5 -17 12 -17 6 0 15 -4 20 -9 5 -5 2 -6 -6 -1
-9 5 -12 3 -9 -6 3 -8 10 -14 15 -14 6 0 15 -4 20 -9 5 -5 2 -6 -6 -1 -9 5
-12 3 -9 -6 3 -8 10 -14 15 -14 6 0 15 -4 20 -9 5 -5 3 -6 -4 -2 -16 9 -16 1
-2 -25 5 -11 14 -17 19 -14 5 3 12 0 16 -6 4 -8 3 -9 -4 -5 -17 10 -16 6 19
-68 17 -36 34 -64 39 -61 9 6 12 -2 46 -100 13 -38 20 -65 15 -60 -5 6 -19 41
-31 78 -12 38 -24 67 -26 65 -1 -2 13 -51 32 -108 19 -58 32 -91 29 -75 -4 21
-2 25 4 15 11 -18 42 -174 40 -204 -1 -11 -4 -5 -8 14 -3 19 -6 -108 -6 -282
0 -174 2 -314 5 -312 2 3 7 130 10 282 l6 277 2 -220 c1 -141 -3 -265 -13
-345 -16 -140 -42 -277 -57 -300 -8 -13 -9 -13 -5 0 13 42 28 132 24 137 -3 3
-9 -12 -12 -33 -16 -96 -80 -298 -125 -393 -54 -113 -55 -116 -38 -105 7 4 8
3 4 -5 -4 -6 -11 -9 -16 -6 -4 3 -18 -10 -29 -29 -24 -38 -26 -50 -8 -40 7 4
9 3 4 -2 -5 -5 -14 -9 -20 -9 -5 0 -12 -6 -15 -14 -3 -9 0 -11 9 -5 12 6 12 5
0 -9 -8 -10 -16 -15 -19 -12 -7 6 -32 -15 -32 -27 0 -5 5 -6 10 -3 18 11 11
-1 -12 -21 -22 -19 -23 -19 -8 1 15 20 14 20 -8 1 -22 -19 -31 -43 -12 -31 21
13 8 -3 -47 -55 -31 -30 -51 -47 -44 -37 21 27 -3 20 -30 -9 -29 -31 -183
-136 -251 -170 -26 -13 -48 -27 -48 -29 0 -6 97 43 150 76 l35 21 -25 -21
c-45 -40 -303 -160 -430 -201 -194 -63 -483 -117 -720 -134 -94 -7 -78 2 26
14 l79 9 -77 -4 -78 -3 0 1724 0 1724 28 1 c26 1 25 1 -6 9 -39 9 -59 24 -22
16 14 -3 70 -15 125 -27z m-138 -2586 c-1 -478 -2 -87 -2 867 0 954 1 1345 2
868 2 -478 2 -1258 0 -1735z"/>
    </g>
</svg>
