<svg className="App-logo"
    xmlns="http://www.w3.org/2000/svg" viewBox="0 0 356 122.46515040352163" height="122.46515040352163" width="356" style="
    
        ">
    <g id="SvgjsG1042" featurekey="symbolFeature-0" transform="matrix(1.8782098312545854,0,0,1.8782098312545854,-43.507887013939836,-32.80172413793103)" fill="#8682E6">
        <path xmlns="http://www.w3.org/2000/svg" d="M36.9433594,62.796875c1.3574219,3.2988281,3.9179688,5.8710938,7.2104492,7.2436523  c1.652832,0.6894531,3.3984375,1.0292969,5.1376953,1.0292969c2.5551758,0,5.0961914-0.734375,7.3027344-2.1723633  c0.4560547-0.2973633,0.5908203-0.9047852,0.3027344-1.3666992l-13.0605469-20.96875  c-0.2871094-0.4614258-0.890625-0.6083984-1.3583984-0.331543c-2.4887695,1.4746094-4.3945312,3.6689453-5.5107422,6.3461914  C35.5947266,55.8686523,35.5859375,59.4985352,36.9433594,62.796875z M40.6826172,61.2583008  c-0.1932983-0.4697266-0.3365479-0.9506836-0.4503784-1.435791l7.9453735-1.6501465l-5.1047974,6.4628906  C42.0457153,63.7133789,41.2235718,62.5725098,40.6826172,61.2583008z M40.6992188,54.1328125  c0.0211182-0.0505371,0.0523071-0.0944824,0.0742188-0.1446533l7.0565186,3.2347412l-7.7752075,1.6148682  C39.8601074,57.2558594,40.0692139,55.6437988,40.6992188,54.1328125z M47.2772827,55.8691406l-6.0470581-2.7719727  c0.640625-1.123291,1.5036621-2.0820312,2.5457764-2.8491211L47.2772827,55.8691406z M48.9349365,58.8276367l0.069519,8.1918945  c-1.1161499-0.0345459-2.2322998-0.2678223-3.2944946-0.7104492c-0.6672363-0.2781982-1.2850342-0.6346436-1.8579712-1.0461426  L48.9349365,58.8276367z M50.0042725,66.9904785l-0.0580444-6.8364258l3.6257935,5.8210449  C52.4506226,66.5556641,51.2385864,66.8955078,50.0042725,66.9904785z M38.8129883,53.3461914  c0.8227539-1.9726562,2.1489258-3.6367188,3.8647461-4.8613281l0.5549927,0.8909912  c-1.3399658,0.9698486-2.4133301,2.2359619-3.1550903,3.7225342c-0.0029907,0.0058594-0.0084839,0.0092773-0.0112305,0.0153809  c-0.0026855,0.0058594-0.00177,0.012085-0.0042114,0.0179443c-0.1000977,0.2022705-0.1981812,0.4061279-0.2858276,0.616333  c-0.7715454,1.8498535-0.9776611,3.8371582-0.6324463,5.7644043c0.0013428,0.0085449-0.0016479,0.0166016,0.0001221,0.0251465  c0.0010986,0.005127,0.0043945,0.0090332,0.0056152,0.0140381c0.1295166,0.7073975,0.3284912,1.4068604,0.6086426,2.0875244  c0.6707153,1.630249,1.7255859,3.0268555,3.0622559,4.1018066c0.003479,0.0029297,0.0049438,0.0070801,0.0085449,0.0100098  c0.0028076,0.0021973,0.0065918,0.0010986,0.0093994,0.0031738c0.7471313,0.5981445,1.5789185,1.0993652,2.4866943,1.4777832  c1.2783203,0.5327148,2.6264648,0.7954102,3.96875,0.7954102c0.0551758,0,0.1096191-0.0111084,0.1647949-0.0119629  c0.0172729,0.001709,0.0322876,0.0100098,0.0500488,0.0100098c0.0014648,0,0.0029297,0,0.0043945,0  c0.0360718-0.0002441,0.067627-0.013916,0.1014404-0.0214844c1.5513306-0.0483398,3.0783691-0.4525146,4.479187-1.1911621  l0.5658569,0.9084473c-2.996582,1.6069336-6.5678711,1.7939453-9.7363281,0.4736328  c-2.7993164-1.1669922-4.9760742-3.3544922-6.1303711-6.1586914C37.6391602,59.2314453,37.6459961,56.1455078,38.8129883,53.3461914  z"></path>
        <path xmlns="http://www.w3.org/2000/svg" d="M56.0483398,61.4077148c0.7583008,0,1.375-0.6166992,1.375-1.375s-0.6166992-1.375-1.375-1.375  s-1.375,0.6166992-1.375,1.375S55.2900391,61.4077148,56.0483398,61.4077148z M56.0483398,59.6577148  c0.206543,0,0.375,0.168457,0.375,0.375s-0.168457,0.375-0.375,0.375s-0.375-0.168457-0.375-0.375  S55.8417969,59.6577148,56.0483398,59.6577148z"></path>
        <path xmlns="http://www.w3.org/2000/svg" d="M62.3139648,51.9140625c0.7583008,0,1.375-0.6166992,1.375-1.375s-0.6166992-1.375-1.375-1.375  s-1.375,0.6166992-1.375,1.375S61.5556641,51.9140625,62.3139648,51.9140625z M62.3139648,50.1640625  c0.206543,0,0.375,0.168457,0.375,0.375s-0.168457,0.375-0.375,0.375s-0.375-0.168457-0.375-0.375  S62.1074219,50.1640625,62.3139648,50.1640625z"></path>
        <path xmlns="http://www.w3.org/2000/svg" d="M36.4296875,46.2158203c0-0.7583008-0.6166992-1.375-1.375-1.375s-1.375,0.6166992-1.375,1.375  s0.6166992,1.375,1.375,1.375S36.4296875,46.9741211,36.4296875,46.2158203z M34.6796875,46.2158203  c0-0.206543,0.168457-0.375,0.375-0.375s0.375,0.168457,0.375,0.375s-0.168457,0.375-0.375,0.375  S34.6796875,46.4223633,34.6796875,46.2158203z"></path>
        <path xmlns="http://www.w3.org/2000/svg" d="M76.1734009,30.0753174c0.1488647-0.4855957,0.2333374-0.980835,0.2333374-1.4859619  c0-6.2382812-11.6933594-11.125-26.6210938-11.125s-26.6210938,4.8867188-26.6210938,11.125  c0,0.489502,0.0800781,0.9694824,0.2199707,1.4406738l6.8981934,42.6306152  c0.5019531,3.1005859,2.4545898,5.8364258,5.2246094,7.3178711c1.9145508,1.0239258,3.9155273,1.7080078,5.9482422,2.0322266  c2.7421875,0.4379883,5.5024414,0.6567383,8.2626953,0.6567383c2.8457031,0,5.6918945-0.2324219,8.5166016-0.6977539  c1.9692383-0.324707,3.8930664-0.9956055,5.7172852-1.9951172c2.7460938-1.503418,4.6157227-4.1376953,5.1293945-7.2270508  L76.1734009,30.0753174z M49.7856445,19.4643555c14.6634521,0,24.5313721,4.677002,24.6170654,9.0673828l-0.1818237,1.0942383  c-0.3363647,0.9819336-1.1394043,1.9591064-2.3560181,2.8779297c-1.8039551-4.982666-10.8519897-8.6645508-22.0792236-8.6645508  s-20.2752686,3.6818848-22.0792236,8.6645508c-1.2280273-0.9274902-2.0348511-1.9144287-2.3654785-2.9056396l-0.1724243-1.0656738  C25.2528687,24.142334,35.1212769,19.4643555,49.7856445,19.4643555z M49.7856445,37.7143555  c-8.9306641,0-16.078186-1.736084-20.3256836-4.0844727c0.8752441-3.8859863,8.8166504-7.7905273,20.3256836-7.7905273  s19.4504395,3.904541,20.3256836,7.7905273C65.8638306,35.9782715,58.7163086,37.7143555,49.7856445,37.7143555z   M69.7360229,36.0266113c-1.8685913,3.5366211-9.4093018,6.8127441-19.9503784,6.8127441s-18.0817871-3.276123-19.9503784-6.8127441  c4.8412476,2.2745361,11.9267578,3.6877441,19.9503784,3.6877441S64.8947754,38.3011475,69.7360229,36.0266113z   M49.7856445,44.8393555c8.4884644,0,15.7296753-2.1057129,19.5396118-5.2856445l-4.5401001,27.5332031  c-0.269043,1.6352539-1.3969727,3.0244141-2.9428711,3.6245117c-7.7783203,3.0185547-16.355957,3.050293-24.1542969,0.0878906  l-0.2368164-0.090332c-1.5791016-0.6000977-2.7216797-2.0097656-2.9814453-3.6791992l-4.28125-27.5234375  C33.9828491,42.7128906,41.2548218,44.8393555,49.7856445,44.8393555z M62.9912109,78.2207031  c-1.6259766,0.890625-3.3354492,1.487793-5.081543,1.7753906c-5.3530273,0.8823242-10.7822266,0.8950195-16.1386719,0.0400391  c-1.8125-0.2895508-3.6025391-0.9023438-5.3203125-1.8212891c-2.2231445-1.1889648-3.7910156-3.3847656-4.1933594-5.8735352  l-6.2595825-38.6838379c0.4219971,0.3520508,0.8867188,0.6928711,1.3925781,1.0214844  c0.0252686,0.3896484,0.0921021,0.7734375,0.2017822,1.1501465l4.901062,31.5083008  c0.3706055,2.3779297,1.9980469,4.3862305,4.246582,5.2402344l0.2368164,0.0908203  c4.0908203,1.5537109,8.3828125,2.3300781,12.675293,2.3300781c4.3769531,0,8.7543945-0.8081055,12.9140625-2.4228516  c2.2026367-0.8549805,3.809082-2.8334961,4.1928711-5.1635742l5.1870117-31.4562988  c0.1320801-0.4171143,0.2070923-0.84375,0.2351685-1.2768555c0.4954224-0.3217773,0.9512329-0.6553955,1.366272-0.9998779  l-6.4383545,38.7403564C66.6962891,74.8994141,65.1958008,77.0136719,62.9912109,78.2207031z"></path>
        <path xmlns="http://www.w3.org/2000/svg" d="M57.78125,21.9882812c0.6181641,0.0942383,1.2226562,0.199707,1.8120117,0.3144531  c0.0322266,0.0063477,0.0644531,0.0092773,0.0961914,0.0092773c0.234375,0,0.4438477-0.1655273,0.4902344-0.4042969  c0.0527344-0.2709961-0.1240234-0.5336914-0.3950195-0.5864258C59.1816406,21.2036133,58.5634766,21.0961914,57.9316406,21  c-0.2719727-0.0429688-0.527832,0.1459961-0.5693359,0.4189453S57.5083008,21.9467773,57.78125,21.9882812z"></path>
        <path xmlns="http://www.w3.org/2000/svg" d="M31.5307617,25.1245117c0.0820312,0,0.1655273-0.0200195,0.2421875-0.0629883  c4.1293945-2.2915039,10.8632812-3.659668,18.0126953-3.659668c0.2763672,0,0.5-0.2236328,0.5-0.5s-0.2236328-0.5-0.5-0.5  c-7.3115234,0-14.2270508,1.4150391-18.4980469,3.7856445c-0.2412109,0.1337891-0.3286133,0.4379883-0.1943359,0.6796875  C31.1845703,25.0317383,31.3549805,25.1245117,31.5307617,25.1245117z"></path>
    </g>
    <g id="SvgjsG1043" featurekey="textGroupContainer" transform="matrix(1,0,0,1,355,25)" fill="#8682E6">
        <rect xmlns="http://www.w3.org/2000/svg" y="0" height="1" width="1" opacity="0"></rect>
        <rect xmlns="http://www.w3.org/2000/svg" y="0" x="-235" width="3" height="72"></rect>
    </g>
    <g id="SvgjsG1044" featurekey="vMvB0T-0" transform="matrix(2.154708044145278,0,0,2.154708044145278,136.44861040342994,30.02865350556378)" fill="#8682E6">
        <path d="M8.7 22.08 l-2.04 -1.78 q-1.38 0 -2.48 -0.47 t-1.87 -1.38 t-1.18 -2.23 t-0.41 -3.04 q0 -1.7 0.39 -3.02 t1.16 -2.24 t1.88 -1.4 t2.55 -0.48 t2.56 0.49 t1.88 1.41 t1.15 2.24 t0.39 3 q0 1.14 -0.19 2.15 t-0.56 1.82 t-0.9 1.37 t-1.21 0.8 l0.52 0.36 q1.36 0.94 2.52 0.94 q-0.04 1.02 -0.61 1.65 t-1.59 0.63 q-0.98 0 -1.96 -0.82 z M6.7 8.5 q-2.7 0 -2.7 4.68 q0 4.66 2.7 4.66 q2.66 0 2.66 -4.66 q0 -4.68 -2.66 -4.68 z M25.560000000000002 6.34 l0 8.62 q0 2.56 -1.4 3.95 t-4 1.39 t-4.01 -1.39 t-1.41 -3.95 l0 -8.62 l0.14 -0.14 l1.18 0 q1.9 0 1.9 2.04 l0 6.76 q0 1.4 0.5 2.08 t1.7 0.68 t1.7 -0.68 t0.5 -2.08 l0 -8.66 q0.62 -0.12 1.6 -0.12 q0.96 0 1.6 0.12 z M28.44 20 l0 -13.66 q0.62 -0.12 1.6 -0.12 t1.62 0.12 l0 13.66 q-0.64 0.12 -1.62 0.12 t-1.6 -0.12 z M41.879999999999995 11.78 l0 -0.24 q0 -2.96 -2.2 -2.96 q-1.26 0 -1.82 1.15 t-0.56 3.39 q0 2.22 0.7 3.3 t2.04 1.08 q0.7 0 1.55 -0.33 t1.85 -1.05 q0.5 0.34 0.93 0.93 t0.53 1.13 q-0.46 0.44 -1.07 0.83 t-1.32 0.67 t-1.48 0.45 t-1.55 0.17 q-1.54 0 -2.6 -0.59 t-1.71 -1.57 t-0.94 -2.26 t-0.29 -2.66 q0 -1.8 0.45 -3.15 t1.22 -2.25 t1.81 -1.35 t2.22 -0.45 q1.2 0 2.18 0.32 t1.67 0.88 t1.06 1.32 t0.37 1.64 q0 1.78 -1.82 1.78 q-0.54 0 -1.22 -0.18 z M57.68 19.22 q-0.68 0.96 -2.12 0.96 q-0.82 0 -1.23 -0.42 t-0.71 -1.42 l-0.76 -2.34 q-0.3 -0.94 -0.72 -1.34 t-1.14 -0.4 q-0.24 0 -0.88 0.04 l0 5.7 q-0.62 0.12 -1.6 0.12 t-1.6 -0.12 l0 -13.66 q0.62 -0.12 1.6 -0.12 t1.6 0.12 l0 5.28 l0.52 -0.02 q0.36 0 0.52 -0.13 t0.38 -0.55 l1.9 -3.58 q0.3 -0.62 0.64 -0.87 t1.06 -0.25 q0.8 0 1.86 0.1 l0.18 0.22 l-2.44 4.6 q-0.46 0.92 -1.12 1.46 q0.94 0.2 1.41 0.76 t0.79 1.5 l0.82 2.48 q0.16 0.46 0.24 0.68 t0.4 0.74 q0.14 0.2 0.4 0.46 z M59.48 6.300000000000001 q1.62 -0.04 2.77 -0.06 t1.85 -0.02 q2.18 0 3.43 0.91 t1.25 2.73 q0 0.88 -0.5 1.64 t-1.28 1.1 q0.5 0.16 0.95 0.51 t0.77 0.82 t0.51 1.02 t0.19 1.13 q0 2.06 -1.31 3.05 t-3.71 0.99 q-0.74 0 -1.96 -0.02 t-2.96 -0.06 l-0.14 -0.14 l0 -13.46 z M64.16 13.98 l-1.66 0 l0 3.9 q0.52 -0.02 1.17 0 t1.21 -0.1 t0.94 -0.58 t0.38 -1.28 q0 -0.78 -0.49 -1.36 t-1.55 -0.58 z M62.5 8.48 l0 3.22 l1.42 0 q0.96 0 1.35 -0.47 t0.39 -1.15 t-0.4 -1.13 t-1.34 -0.45 l-0.81 0 t-0.61 -0.02 z M74.78 15.96 l-0.02 1.44 l0 0.02 q0.92 -0.04 1.48 -0.04 l4.64 0 q0 0.74 -0.06 1.14 q-0.24 1.54 -2.04 1.54 l-5.32 0 q-0.86 0 -1.35 -0.5 t-0.49 -1.36 l0 -11.72 l0.14 -0.14 l8.62 0 q0.12 0.58 0.12 1.26 t-0.28 1.42 l-5.46 0 l0.02 1.44 l0 1.4 q0.52 -0.02 1.36 -0.02 l3.06 0 q0.18 0.56 0.18 1.28 t-0.18 1.32 l-4.42 0 l0 1.52 z M87.92000000000002 17.32 l2.62 -10.98 q0.48 -0.12 1.24 -0.12 q1.04 0 1.64 0.22 l0.12 0.16 l-3.74 13.4 q-1.14 0.12 -2.29 0.12 t-1.66 -0.29 t-0.77 -1.15 l-3.32 -12.06 q1.08 -0.46 1.78 -0.46 q0.84 0 1.24 0.38 t0.62 1.2 l1.54 5.7 q0.36 1.34 0.76 3.64 q0.04 0.24 0.22 0.24 z"></path>
    </g>
</svg>